<svg width="24" height="24" fill="none" xmlns="http://www.w3.org/2000/svg"><path d="M16.6 5.82A4.278 4.278 0 0115.54 3h-3.09v12.4a2.592 2.592 0 01-2.59 2.5c-1.42 0-2.6-1.16-2.6-2.6 0-1.72 1.66-3.01 3.37-2.48V9.66c-3.45-.46-6.47 2.22-6.47 5.64 0 3.33 2.76 5.7 5.69 5.7 3.14 0 5.69-2.55 5.69-5.7V9.01a7.35 7.35 0 004.3 1.38V7.3s-1.88.09-3.24-1.48z" fill="url(#paint0_linear_4102_419)"/>
<defs>
<linearGradient id="paint0_linear_4102_419" x1="0.159912" y1="9" x2="15.8399" y2="9" gradientUnits="userSpaceOnUse">
<stop stop-color="#FC4A1A"/>
<stop offset="1" stop-color="#F7B733"/>
</linearGradient>
</defs></svg>